<svg width="211" height="401" viewBox="0 0 211 401" fill="none" xmlns="http://www.w3.org/2000/svg">
<g clip-path="url(#clip0_37_35)">
<path d="M120.156 60.0144C116.923 59.6469 113.683 59.7127 110.441 59.898C109.084 59.9758 107.677 59.9706 106.346 60.2754C102.582 60.3762 98.9196 61.0099 95.2436 61.7746C89.9422 62.8771 84.8975 64.1711 80.3399 67.2061C79.5725 67.7166 78.7618 68.2851 78.1255 68.9553C77.2731 69.8532 76.4875 71.0162 75.2519 71.4087C67.6014 73.8371 59.6966 75.7498 51.6082 75.1782C49.5447 75.032 47.2066 74.8007 45.2219 74.1853C42.2241 73.2561 39.6506 71.4996 36.6548 70.5746C35.8728 70.8596 35.0621 71.1269 34.3794 71.6139C30.2759 74.5403 25.5225 78.5383 24.7651 83.8492C24.7191 84.1723 24.6805 84.4558 24.585 84.769C24.194 86.0578 24.1642 87.3064 23.9993 88.6318C23.2747 94.4454 23.3071 100.92 25.403 106.454C27.6199 112.308 31.6733 116.287 37.3303 118.813C37.1335 119.434 36.9033 120.07 36.7978 120.713C36.4382 122.915 35.7893 125.088 35.26 127.245C34.9682 128.434 34.964 129.623 34.5313 130.799C34.2609 131.535 34.2395 132.23 34.0855 132.985L33.0629 137.711L30.2613 150.748C30.0551 151.798 29.6782 152.821 29.5263 153.878L29.3598 154.937C29.2204 155.489 28.9985 156.046 28.5058 156.36C27.6893 156.485 27.1438 156.592 26.4501 157.051C26.0836 157.911 26.2564 159.084 26.4501 159.972C27.0843 160.83 28.12 161.057 29.0695 161.477C29.9194 161.852 30.7206 162.288 31.5256 162.75C30.6089 163.002 28.5313 162.349 27.5442 162.167C23.9841 161.51 18.4624 160.697 15.1377 162.422C14.2514 162.882 13.4856 163.688 13.2679 164.687C13.1029 165.443 12.986 170.138 13.1953 170.707C13.2679 170.905 13.5263 171.273 13.6511 171.458C14.8506 173.239 15.1336 175.264 15.6561 177.318C16.7575 181.65 18.1956 187.248 21.1893 190.683C23.5817 193.428 26.8186 194.053 30.279 194.302C29.674 195.508 29.1149 196.792 28.76 198.095C27.6554 202.151 27.8397 206.473 30.0833 210.14C30.6877 211.128 31.7156 212.206 31.892 213.37C32.093 214.693 31.8477 216.195 31.8367 217.547C31.7918 223.155 31.4963 229.46 34.348 234.492C34.6712 235.061 34.8283 235.39 34.8502 236.05C34.8826 237.042 34.8842 238.147 35.1097 239.112C35.663 241.485 37.2175 243.517 38.3398 245.634C38.7689 246.443 39.3055 247.322 39.5279 248.214C40.6492 252.704 39.9173 257.415 40.8742 261.916C41.1472 263.202 41.3022 264.396 41.8853 265.603C43.848 269.665 46.3093 272.186 50.6618 273.62L50.9212 273.703C49.9581 274.966 48.8154 275.649 47.7594 276.755C45.9397 278.66 44.298 280.929 42.745 283.054L39.8014 287.517C39.589 287.844 39.1839 288.747 38.9109 288.964C38.6441 289.176 37.3579 289.356 36.9241 289.467L31.3444 291.095C25.2949 293.13 19.2861 295.642 13.46 298.245L-14.366 311.899C-26.4515 318.077 -39.3941 323.814 -49.628 332.913C-52.6201 335.573 -55.3842 338.34 -57.3782 341.837C-57.8052 342.586 -58.3784 343.339 -58.6791 344.147C-59.0424 345.12 -59.5769 346.018 -59.9861 346.971L-62.0241 352.202C-62.4803 353.324 -63.1292 354.524 -63.386 355.706L-66.9638 367.662C-67.2462 368.714 -67.4065 369.792 -67.6466 370.852C-67.9395 372.144 -68.617 374.037 -67.918 375.281C-67.4555 375.427 -67.1063 375.466 -66.6219 375.453C-66.4627 375.449 -65.1013 375.429 -65.0554 375.384C-64.8126 375.147 -64.2097 371.717 -64.0609 371.118C-63.1834 367.589 -62.3879 364.039 -61.2614 360.577L-58.2755 352.746C-57.2154 350.086 -56.2596 347.312 -54.9227 344.777C-52.2537 339.715 -47.6866 335.744 -43.093 332.465C-32.2217 324.704 -20.0616 318.933 -8.13382 313.028C2.99481 307.519 14.2994 301.862 25.8842 297.384C29.3253 296.054 32.7831 294.516 36.3385 293.519C37.3365 293.239 39.8641 292.906 40.5881 292.269C42.3556 290.715 43.8334 288.067 45.223 286.14C47.2468 283.336 49.4335 280.498 51.8118 277.981C52.3572 277.405 55.5013 274.317 55.9361 274.175C56.3297 274.048 57.4405 274.188 57.9062 274.176L64.9183 274.014L57.8936 290.594C57.1889 291.999 56.9478 293.334 56.4096 294.778C55.7195 296.63 56.0322 298.978 56.4492 300.855C57.3612 304.96 59.6105 308.309 62.1448 311.581C68.7184 320.068 79.2619 326.272 89.6879 328.59C92.5918 329.237 95.4968 329.46 98.4383 329.799C101.554 330.159 105.185 329.929 108.301 329.689C112.108 329.396 115.729 328.999 119.447 328.055C126.945 326.153 133.707 322.345 139.734 317.558C143.494 314.57 146.758 311.187 150.093 307.753C154.582 303.132 158.456 298.591 161.559 292.9C162.805 290.614 164.022 288.086 164.384 285.484C165.126 280.147 163.969 274.671 164.579 269.366C166.871 269.32 169.858 269.023 172.067 269.634L172.407 269.735L173.457 270.064C175.946 271.04 177.689 275.185 178.683 277.478L183.172 289.388L184.562 292.889C184.681 293.191 185.025 293.824 185.049 294.123C185.066 294.339 184.717 295.046 184.645 295.292C184.196 296.824 183.849 298.479 183.232 299.952L182.081 302.885C181.17 305.716 179.274 308.738 177.597 311.173C174.914 315.07 171.833 318.719 168.483 322.078C166.78 323.785 164.751 325.356 162.903 326.907C157.796 331.196 152.31 335.081 146.375 338.161L138.806 341.651C137.269 342.327 135.184 342.904 133.993 344.092C133.791 344.601 133.86 344.796 133.935 345.327C134.158 345.575 134.441 345.95 134.776 346.056C136.389 346.566 138.823 345.348 140.291 344.76C144.038 343.257 147.59 341.61 151.088 339.588C158.89 335.081 165.992 329.461 172.336 323.089C177.078 318.326 181.421 312.974 184.235 306.816C186.026 302.895 186.803 298.995 187.908 294.866C189.057 295.107 190.151 295.351 191.228 295.827C196.198 298.021 200.779 300.936 205.516 303.57C215.865 309.325 226.279 315.187 236.155 321.728C240.96 324.911 245.561 328.442 249.916 332.216C253.722 335.514 257.193 338.646 259.708 343.105C260.737 344.93 261.461 347.371 262.088 349.381C262.459 350.569 262.932 351.787 263.173 353.009C263.599 355.17 264.627 357.475 264.795 359.646C264.895 360.927 265.267 362.213 265.496 363.479L266.365 369.45C266.592 371.163 266.345 373 266.489 374.743C266.833 375.329 267.054 375.479 267.656 375.793C268.488 375.897 268.947 375.759 269.7 375.408C270.443 374.557 270.148 372.623 270.113 371.521C270.032 369.01 269.66 366.582 269.335 364.101C268.719 359.409 267.783 354.787 266.48 350.238C265.394 346.444 264.051 342.662 261.886 339.336C258.339 333.886 253.073 329.641 247.979 325.72C239.928 319.522 231.312 314.337 222.527 309.251L201.187 296.758L195.423 293.846L190.179 291.572C189.619 291.356 188 290.912 187.61 290.463C187.497 290.332 187.339 289.766 187.265 289.577L186.176 286.776L182.922 278.376C181.625 275.007 180.366 270.779 177.624 268.278C174.371 265.31 168.584 266.181 164.569 266.35L164.501 265.826C164.169 262.91 164.397 259.735 164.397 256.794L164.421 238.873L164.433 233.043C164.434 232.7 164.333 231.754 164.435 231.472C164.605 231.009 165.668 230.101 166.04 229.679L172.115 222.652C175.327 218.574 178.063 213.949 180.678 209.476L191.022 189.684C193.082 185.344 195.128 180.931 196.751 176.406C198.745 170.844 200.286 165.064 201.013 159.192C202.07 150.654 201.16 142.448 200.176 133.993C200.803 133.734 201.611 133.471 201.934 132.818C203.488 129.676 201.446 121.529 200.304 118.302C197.694 110.925 192.486 103.423 185.985 98.9999C184.154 97.7533 182.248 96.892 180.255 95.9394C181.519 93.7553 183.303 91.7696 183.584 89.1648C183.66 88.4668 183.683 87.8352 183.225 87.2636C182.746 86.6664 182.078 86.2029 181.278 86.2259C179.222 86.2849 177.397 88.4533 176.08 89.8355C176.356 87.202 177.23 85.2951 176.145 82.6606C174.618 78.9554 169.635 75.992 166.068 74.5288C161.449 72.6344 157.597 72.2106 152.704 73.1449C151.244 69.4283 147.505 67.4118 144.088 65.6944C136.569 61.9161 128.37 61.0146 120.156 60.0144ZM105.374 326.57L100.065 326.573C96.8556 326.517 93.6949 325.959 90.5618 325.292C83.4813 323.783 77.1285 320.334 71.5211 315.855C67.8514 312.924 64.5304 309.682 62.0295 305.67C60.6237 303.415 58.6354 299.464 59.3364 296.734C60.5558 291.985 63.1325 287.286 65.1913 282.839C66.465 280.088 68.138 276.847 68.2779 273.768L68.2847 273.546C68.8954 273.204 69.657 273.141 70.344 273.007L75.1908 272.154L82.2546 270.563C88.5197 268.854 94.6663 266.679 100.655 264.169C118.589 256.653 135.361 244.107 142.854 225.579C143.796 223.248 144.78 220.725 145.332 218.27C145.502 217.515 145.684 216.867 145.381 216.147L144.606 215.887C143.73 216.047 143.228 216.386 142.766 217.147C140.719 220.511 139.684 224.626 137.881 228.156C136.463 230.93 134.77 233.796 132.912 236.3C131.996 237.535 130.863 238.608 129.997 239.888C128.932 241.46 127.618 242.733 126.262 244.05C123.542 246.692 120.644 249.009 117.587 251.247C110.092 256.734 100.787 260.461 92.1022 263.575C83.8524 266.534 75.669 268.928 66.9771 270.202C62.4836 270.86 58.0596 271.252 53.5464 270.527C51.0987 270.134 48.995 269.226 47.2311 267.47C46.3469 266.59 45.4866 265.706 44.9479 264.559C44.0845 262.721 44.0526 260.663 43.9942 258.674C43.8402 253.42 44.1539 247.633 40.8601 243.179C40.0431 242.074 38.9986 240.531 38.5361 239.233C38.2224 238.352 38.2459 237.067 38.1602 236.126C39.4423 235.934 40.8141 236.149 42.1129 236.054C43.7473 235.935 45.152 235.384 46.8527 235.476C48.5972 235.571 50.2708 236.004 51.9929 236.25C54.3842 236.59 56.7969 236.8 59.2117 236.847C60.369 236.869 61.7371 236.995 62.8281 236.567C62.9158 236.074 62.9326 235.978 62.765 235.512C61.8348 235.063 60.7861 234.982 59.7728 234.827L53.6962 233.952C51.2574 233.506 48.3764 232.402 45.9345 232.467C44.5929 232.502 43.6575 233.447 42.4924 233.643C42.4099 233.657 41.796 233.398 41.7005 233.365C40.0034 232.779 38.392 232.537 36.636 232.226C36.3176 231.779 36.3364 231.042 36.2883 230.505L35.9475 225.73L35.9073 217.553C35.9078 216.978 35.7538 215.509 35.9809 215.034C36.0733 214.841 36.4481 214.54 36.6073 214.371C36.3447 212.872 34.9677 211.609 34.0855 210.407C32.6599 208.463 31.4916 206.026 31.2379 203.613C30.6376 197.91 35.2292 193.597 38.0558 189.209C39.2465 187.36 40.1961 185.343 40.9613 183.284C41.5032 181.825 42.1259 180.2 42.495 178.692C43.2785 175.49 43.3166 171.582 45.3853 168.921C46.2534 169.03 47.1831 169.151 47.986 169.521C48.1948 169.616 48.6092 169.85 48.7575 170.011C49.4815 170.793 50.6649 178.916 51.1879 180.543C51.7841 182.397 52.2868 184.416 53.2086 186.14C53.3365 186.381 53.4425 186.6 53.5422 186.855C54.3289 188.871 55.4882 190.786 56.8089 192.498C59.6982 196.244 63.632 198.091 68.2664 198.683C71.9445 199.152 77.2741 198.985 80.2903 196.492C85.6012 192.102 85.3344 179.962 86.0971 173.665L93.4756 173.779C95.3026 173.793 97.2868 173.653 99.0919 173.889C99.5601 173.95 99.984 173.965 100.456 173.955L100.715 173.632C100.607 173.425 100.544 173.188 100.391 173.011C99.711 172.221 97.41 172.265 96.4672 172.246L91.172 172.017C89.5026 171.94 87.5989 172.086 86.1592 171.129C86.9907 170.818 87.911 170.544 88.8073 170.532C90.4631 170.508 92.1847 170.693 93.8504 170.735L102.74 170.603L119.479 169.662C123.284 169.484 126.961 169.197 130.768 169.596C131.023 170.434 131.412 171.221 131.661 172.061L134.699 183.979C135.071 185.445 134.075 188.014 133.689 189.505C134.672 190.133 135.765 190.623 136.872 190.989C138.699 191.593 140.552 191.816 142.467 191.795C142.539 191.794 143.145 191.814 143.192 191.783C143.694 191.455 143.909 189.305 144.441 188.868C144.78 188.589 145.558 188.319 145.976 188.121C147.943 187.192 149.852 185.268 151.091 183.491C153.197 180.471 155.861 177.282 159.13 175.473L162.039 173.992C165.028 172.824 169.168 172.423 172.131 173.987L172.42 174.171C173.916 175.108 174.874 176.089 175.842 177.566C179.058 182.476 179.469 188.217 178.332 193.811C177.248 199.15 173.497 204.819 169.061 207.978C166.813 209.58 164.701 211.084 162.789 213.087C162.209 213.694 160.542 215.508 159.739 215.702C159.106 215.853 157.98 215.791 157.34 215.682C156.574 215.551 155.559 215.376 154.786 215.468C154.196 215.539 153.991 215.761 153.644 216.208L153.861 216.848C155.928 218.927 158.053 218.769 160.768 218.831C161.101 223.708 160.854 228.758 160.822 233.65L160.895 253.981L161.241 265.028L161.113 272.018V281.264C161.073 282.859 161.116 284.541 160.834 286.114C160.536 287.776 159.547 289.293 158.763 290.754C157.47 293.163 156.033 295.631 154.37 297.805L151.752 300.924C146.542 307.452 140.256 313.615 133.227 318.195C124.859 323.647 115.3 326.211 105.374 326.57ZM54.8613 118.314L62.397 119.035C63.1596 120.656 63.8847 122.275 64.8441 123.79L65.0378 124.104C68.2826 129.29 74.9105 132.75 80.7256 134.059C88.8626 135.89 97.2633 136.069 105.504 134.996C107.98 140.702 110.319 145.471 115.871 148.794C116.99 148.783 118.009 148.718 119.056 149.173L119.317 149.284C124 151.311 127.417 156.878 129.44 161.353L85.9191 157.392L75.564 157.278L63.7615 156.804C61.8525 156.794 59.8694 156.708 57.997 157.104C54.7454 157.791 52.8923 158.851 51.0543 161.682C50.7108 162.211 50.4989 162.778 50.252 163.355C49.8584 164.274 49.5995 165.131 49.3583 166.099C47.5099 165.667 44.5793 164.856 42.8286 165.855C42.1129 166.263 41.9573 167.133 41.8007 167.875C41.332 170.095 41.3487 172.48 40.3772 174.562C40.217 174.906 40.147 175.22 40.0729 175.59L39.9267 175.687C39.4783 175.029 39.6245 173.973 39.5143 173.189C39.2037 170.98 38.8702 168.747 38.3659 166.572C37.8564 164.374 36.5906 162.61 35.9736 160.531L36.2189 160.578C37.7202 160.848 39.6208 161.029 41.1336 160.874C41.4917 160.357 41.4452 160.275 41.4264 159.636C40.5521 158.089 39.3906 157.678 37.7473 157.224L32.2423 156.283L34.2917 149.237L35.8807 141.316C36.3682 138.923 36.6255 136.283 37.4211 133.979L40.8522 121.256L41.0506 121.228C43.6095 120.852 46.3208 120.19 48.8274 119.549C50.7698 119.052 52.8218 118.104 54.8613 118.314ZM63.4316 161.375L71.3828 162.404C74.507 162.841 78.3515 163.157 80.3613 165.913C80.7919 166.503 81.0247 167.166 81.2711 167.848C80.0287 167.815 78.6496 167.316 77.4344 167.051C74.3112 166.368 66.9233 164.654 64.4547 167.04C63.3543 168.103 63.0035 169.182 63.0343 170.696C63.0396 170.966 63.0991 171.217 63.1591 171.479L63.6487 171.86C64.9219 171.43 65.4293 169.489 66.6701 168.942C68.2006 168.267 79.039 169.643 80.7147 170.513C81.2126 170.771 81.5144 172.11 81.7148 172.653C81.6141 173.077 81.6537 173.364 81.2706 173.613C80.2302 174.287 78.5645 174.187 77.365 174.192L72.4732 174.156C70.1383 174.054 66.8633 173.539 64.7173 174.513L64.628 174.915C65.3541 175.9 65.9941 176.197 67.2041 176.368C68.6208 176.569 70.1942 176.477 71.6271 176.448L81.7529 176.418C81.8145 180.799 81.6851 190.335 78.5922 193.503C76.4671 195.679 72.3991 195.473 69.6006 195.397C68.483 195.366 67.4568 195.183 66.3647 194.972C63.11 194.344 59.9743 191.765 58.198 189.043C56.9738 187.167 56.1125 185.012 55.3139 182.927C53.6351 178.546 52.4695 174.451 52.5248 169.735C52.5389 168.544 52.5091 167.277 52.7978 166.115C53.1888 164.541 54.5413 163.255 55.9152 162.503C58.1092 161.301 60.987 161.073 63.4316 161.375ZM19.3691 173.338L32.9705 174.616C34.2583 174.726 35.5523 175.045 36.8417 175.019C37.3642 177.556 37.6617 180.711 36.8438 183.181C36.7367 183.504 36.6903 183.783 36.6407 184.117C36.4037 185.721 35.1248 187.426 34.3695 188.879L31.9473 191.323C30.7535 191.131 29.4997 191.157 28.3283 190.908C26.116 190.439 24.4059 189.023 23.0967 187.222C20.2722 183.334 19.4824 178.175 18.7641 173.534C19.1368 173.264 18.9327 173.321 19.3691 173.338ZM25.6796 165.289C27.029 165.462 33.2508 165.971 34.0881 166.813C35.0872 167.818 35.7601 170.732 36.1359 172.108L36.2789 172.607L29.3363 171.961L18.4947 170.357C18.727 169.03 18.8904 166.757 20.0968 165.922C21.501 164.95 24.0797 165.131 25.6796 165.289ZM120.156 60.0144L119.968 60.0468C119.544 60.1225 119.326 60.1428 118.958 60.3876L112.901 60.3083C110.86 60.361 108.316 60.6455 106.346 60.2754C107.677 59.9706 109.084 59.9758 110.441 59.898C113.683 59.7127 116.923 59.6469 120.156 60.0144ZM105.374 326.57L104.955 327.119L100.461 327.176L100.065 326.573L105.374 326.57Z" fill="#2C352D"/>
<path d="M105.374 326.57L100.065 326.573L100.461 327.176L104.955 327.119L105.374 326.57Z" fill="#2C352D"/>
<path d="M120.156 60.0144C116.923 59.6469 113.684 59.7127 110.441 59.898C109.084 59.9758 107.677 59.9706 106.346 60.2754C108.316 60.6455 110.86 60.361 112.901 60.3083L118.958 60.3876C119.326 60.1428 119.544 60.1225 119.968 60.0468L120.156 60.0144Z" fill="#2C352D"/>
<path d="M158.703 186.547C158.115 186.527 157.904 186.471 157.378 186.76L157.337 187.029C157.14 189.033 159.745 189.61 160.589 190.807C160.853 191.18 160.771 191.925 160.797 192.384C160.85 193.327 161.013 193.931 161.606 194.676C161.954 194.986 161.897 194.913 162.324 194.917L162.675 194.365C163.296 193.103 163.128 190.724 162.6 189.404C161.954 187.794 160.172 187.155 158.703 186.547Z" fill="#2C352D"/>
<path d="M41.5429 206.205C40.8653 206.141 40.1877 206.213 39.5676 206.523C39.0424 206.785 38.8467 207.062 38.6583 207.595L38.9803 208.265C40.1402 208.945 41.9286 208.663 43.2535 208.723C44.2724 208.769 45.2992 208.957 46.303 209.129L47.3241 210.993C47.7093 211.786 47.8628 211.9 48.6724 212.175C49.5123 212.111 50.3548 212.031 51.0564 211.517C51.6066 211.113 51.913 210.696 51.9861 210.014C52.0764 209.174 52.054 208.599 51.4615 207.952C51.1603 207.622 50.5485 207.405 50.146 207.245C47.631 206.243 44.2155 206.391 41.5429 206.205Z" fill="#2C352D"/>
<path d="M168.327 178.196C166.996 178.151 165.55 178.381 164.355 178.986C161.948 180.206 161.135 182.477 160.304 184.853C161.337 185.187 164.005 185.716 164.618 186.579L164.74 186.76C165.712 188.064 166.417 189.44 166.677 191.065C166.975 192.927 166.702 195.031 165.475 196.517C164.334 197.901 163.743 197.499 162.226 197.743C161.559 197.85 161.36 198.464 161.063 198.982C161.152 199.417 161.214 199.77 161.531 200.101C162.001 200.592 162.866 200.881 163.539 200.873C164.747 200.859 165.889 200.041 166.689 199.193C167.645 198.178 168.249 197.068 168.774 195.79C169.27 193.933 169.321 190.997 168.818 189.133C167.999 186.101 166.581 184.421 163.885 182.888C164.42 182.118 164.95 181.265 165.848 180.889C167.001 180.406 168.154 180.477 169.292 180.965C171.592 181.95 172.174 185.238 173.061 187.312C173.222 187.688 173.429 188.247 173.815 188.394C173.99 188.052 174.208 187.663 174.293 187.288C174.633 185.799 173.285 182.033 172.501 180.815C171.495 179.254 170.07 178.585 168.327 178.196Z" fill="#2C352D"/>
</g>
<defs>
<clipPath id="clip0_37_35">
<rect width="211" height="400.9" fill="white" transform="matrix(-1 0 0 1 211 0)"/>
</clipPath>
</defs>
</svg>
