<?xml version="1.0" encoding="UTF-8" standalone="no"?>
<svg
   width="512"
   height="512"
   version="1.1"
   id="svg22"
   sodipodi:docname="illustration-luiz.svg"
   inkscape:version="1.1.1 (3bf5ae0d25, 2021-09-20)"
   xmlns:inkscape="http://www.inkscape.org/namespaces/inkscape"
   xmlns:sodipodi="http://sodipodi.sourceforge.net/DTD/sodipodi-0.dtd"
   xmlns="http://www.w3.org/2000/svg"
   xmlns:svg="http://www.w3.org/2000/svg">
  <defs
     id="defs26" />
  <sodipodi:namedview
     id="namedview24"
     pagecolor="#505050"
     bordercolor="#eeeeee"
     borderopacity="1"
     inkscape:pageshadow="0"
     inkscape:pageopacity="0"
     inkscape:pagecheckerboard="0"
     showgrid="false"
     inkscape:zoom="1.4042969"
     inkscape:cx="256"
     inkscape:cy="256"
     inkscape:window-width="1920"
     inkscape:window-height="1027"
     inkscape:window-x="-8"
     inkscape:window-y="-8"
     inkscape:window-maximized="1"
     inkscape:current-layer="svg22" />
  <g
     id="g38" />
  <g
     id="g1148"
     style="fill:#2c352d;fill-opacity:1"
     transform="matrix(-1,0,0,1,511.7971,0)">
    <path
       d="m 347.759,114.917 c 6.052,-0.679 12.174,-0.521 18.241,-0.169 2.617,0.151 5.341,0.151 7.908,0.733 l 5.426,0.334 c 12.276,1.635 25.518,3.559 36.894,8.726 4.204,1.91 8.356,4.626 11.724,7.792 1.204,1.132 2.224,2.658 3.575,3.596 2.233,1.55 5.92,2.251 8.528,2.965 10.705,2.935 21.818,5.442 32.986,5.342 5.611,-0.051 11.692,-0.428 17.084,-2.032 2.667,-0.793 5.215,-1.741 7.729,-2.935 2.399,-1.14 6.733,-4.009 9.386,-3.964 2.25,0.037 5.45,2.82 7.242,4.11 5.359,3.859 11.948,10.107 14.021,16.448 l 1.381,4.454 c 0.784,2.233 0.997,4.916 1.369,7.258 0.784,4.94 0.853,9.471 0.857,14.464 0.007,8.181 -0.471,16.315 -4.17,23.825 -3.874,7.867 -8.018,14.019 -15.645,18.636 -1.876,1.135 -3.966,1.921 -5.921,2.914 -0.092,0.047 -0.259,0.039 -0.277,0.142 -0.058,0.331 0.467,1.81 0.57,2.222 0.538,2.151 1.401,4.815 1.464,6.999 0.043,1.468 0.685,2.757 1.026,4.161 l 1.945,8.25 9.109,43.874 c 0.309,1.923 1.158,4.394 1.977,6.174 1.175,0.567 2.175,0.769 3.463,0.952 0.932,0.819 1.259,1.59 1.362,2.812 0.146,1.736 0.029,2.926 -1.036,4.312 -2.624,1.656 -6.149,2.311 -8.489,4.363 9.087,-0.821 18.399,-3.789 27.517,-1.599 1.432,0.344 3.107,0.731 4.279,1.656 1.574,1.242 2.377,2.608 2.542,4.617 0.211,2.557 0.015,5.262 0.029,7.838 0.004,0.775 0.224,2.4 0.016,3.093 -0.55,1.836 -2.102,3.683 -2.748,5.68 -1.108,3.42 -1.532,6.915 -2.447,10.352 -1.205,4.53 -3.035,9.138 -4.862,13.451 -1.051,2.483 -2.292,5.385 -4.085,7.429 -4.897,5.58 -10.424,7.635 -17.762,8.004 l -0.524,0.022 c 0.898,2.814 2.418,5.394 3.244,8.208 0.636,2.165 0.505,4.242 0.551,6.47 0.126,6.188 -0.449,10.022 -3.365,15.553 -1.194,2.264 -3.179,4.042 -3.748,6.655 -0.316,1.45 -0.117,3.361 -0.091,4.845 l 0.146,9.827 c -0.031,5.182 -0.582,10.376 -1.069,15.529 -0.213,2.252 -1.022,4.634 -2.041,6.647 -0.675,1.332 -1.462,2.894 -1.829,4.341 -0.295,1.163 -0.153,2.499 -0.26,3.693 -0.138,1.547 -0.582,3.105 -0.927,4.619 -1.116,4.89 -4.547,8.912 -6.762,13.309 -1.278,2.537 -1.93,5.296 -2.35,8.086 l -0.11,0.685 c -0.413,2.703 -0.297,5.405 -0.398,8.127 -0.301,8.09 -0.768,16.736 -5.154,23.754 l -0.263,0.432 c -3.739,6 -8.972,8.709 -15.185,11.495 1.952,2.055 4.156,3.788 6.116,5.809 3.099,3.192 6.017,6.884 8.679,10.448 2.023,2.708 3.911,5.781 5.648,8.685 0.584,0.978 1.704,3.406 2.567,4.049 0.661,0.493 2.354,0.689 3.169,0.887 l 8.082,2.209 c 7.612,2.336 15.143,5.355 22.514,8.359 23.074,9.404 45.383,20.88 67.561,32.202 23.128,11.806 46.852,22.728 67.111,39.272 4.444,3.629 9.616,8.516 12.938,13.199 1.271,1.792 2.296,3.833 3.398,5.735 1.199,2.069 2.559,4.211 3.317,6.476 0.542,1.617 1.531,3.217 2.233,4.786 l 3.45,8.408 3.855,11.58 c 1.032,2.806 2.353,5.599 2.772,8.578 0.666,4.732 6.604,19.877 4.008,23.738 -1.223,0.476 -3.45,0.57 -4.686,0.064 l -0.436,-0.198 -5.984,-23.591 c -1.732,-6.01 -4.084,-11.794 -6.333,-17.621 -3.167,-8.209 -6.241,-16.907 -11.559,-24.004 -2.421,-3.232 -5.515,-6.093 -8.487,-8.809 -11.889,-10.859 -26.89,-19.237 -40.939,-26.968 l -34.78,-17.617 -35.917,-17.186 -18.672,-8.706 -26.414,-10.318 -9.548,-2.823 c -0.931,-0.261 -2.887,-0.544 -3.651,-1.031 -1.309,-0.836 -2.815,-3.607 -3.803,-4.84 l -9.306,-12.663 c -3.977,-5.135 -8.468,-9.776 -13.16,-14.25 -0.676,-0.645 -2.541,-2.874 -3.272,-3.132 -0.846,-0.3 -3.332,0.058 -4.322,0.057 -4.093,-0.004 -8.527,-0.785 -12.562,-0.231 0.064,1.107 0.502,2.099 0.752,3.177 0.946,4.076 3.427,8.234 5.12,12.058 l 7.397,16.835 c 1.034,2.352 2.297,4.523 2.496,7.139 0.13,1.716 0.921,3.317 0.946,5.078 0.137,9.384 -4.647,18.713 -10.394,25.865 l -3.603,4.401 c -3.287,4.245 -7.459,7.76 -11.65,11.073 -13.818,10.927 -30.525,18.342 -48.108,20.397 -8.083,0.945 -17.218,1.558 -25.328,0.587 l -9.189,-0.703 c -4.309,-0.487 -8.824,-1.398 -13.024,-2.479 -18.052,-4.649 -32.709,-14.416 -46.567,-26.599 -8.391,-7.377 -16.541,-15.728 -23.511,-24.483 -7.648,-9.605 -15.867,-22.11 -16.638,-34.663 -0.324,-5.285 -0.244,-10.873 -0.006,-16.172 0.134,-2.975 0.56,-5.878 0.279,-8.869 -0.066,-0.703 -0.072,-1.15 -0.613,-1.641 l -7.043,-0.142 c -3.054,0.026 -6.002,0.244 -8.94,1.154 -3.851,1.192 -6.141,5.265 -7.862,8.667 l -15.122,37.932 c 1.449,3.657 2.335,7.459 3.629,11.155 1.794,5.126 4.216,10.285 6.821,15.062 3.281,6.019 7.312,11.218 11.735,16.411 1.454,1.706 2.637,3.649 4.167,5.286 4.921,5.265 10.129,9.655 15.628,14.252 11.566,9.669 23.962,18.069 37.603,24.541 l 12.18,5.421 c 1.719,0.743 4.763,1.682 5.941,3.194 0.691,0.888 0.408,1.504 0.297,2.549 -0.581,0.569 -0.992,1.15 -1.787,1.39 -3.198,0.965 -7.679,-1.445 -10.595,-2.633 -8.367,-3.408 -16.055,-7.142 -23.846,-11.739 -12.791,-7.547 -24.667,-17.225 -35.178,-27.672 -10.373,-10.311 -19.665,-21.199 -25.61,-34.714 -3.065,-6.968 -4.346,-14.001 -6.242,-21.295 -1.947,0.385 -3.917,0.745 -5.751,1.528 -9.331,3.984 -17.939,9.556 -26.793,14.447 l -20.009,11.43 c -13.069,7.405 -26.399,14.833 -38.827,23.283 -11.644,7.918 -22.583,16.417 -33.174,25.695 -5.0353,4.411 -10.01,10.129 -13.0965,16.097 -2.3195,4.486 -3.7776,9.408 -5.2338,14.221 -3.5717,11.807 -5.9994,23.944 -7.4988,36.184 -0.4002,3.268 2e-4,6.784 -0.2334,10.112 -0.4965,0.843 -0.9191,1.472 -1.8441,1.884 -1.4279,0.636 -2.8252,0.12 -4.1559,-0.475 -0.578,-0.543 -0.8313,-0.992 -0.963,-1.786 -0.4428,-2.667 0.0388,-5.725 0.213,-8.418 1.0861,-16.788 4.588,-35.209 11.1257,-50.756 1.8219,-4.332 4.1448,-7.654 6.7861,-11.465 6.0446,-8.722 15.4449,-16.212 23.8547,-22.529 l 7.371,-5.741 c 18.766,-13.225 38.802,-24.593 58.699,-36.015 l 23.752,-13.956 11.192,-5.664 9.975,-4.31 c 1.301,-0.507 3.934,-1.218 4.965,-2.136 1.118,-0.995 2.158,-5.205 2.696,-6.675 l 4.828,-12.319 c 2.883,-7.646 5.885,-18.578 12.212,-23.938 6.012,-5.093 17.419,-3.961 24.693,-3.277 0.362,-4.949 0.102,-10.005 0.17,-14.972 l 0.08,-40.726 -0.053,-8.49 c -0.005,-0.592 0.181,-2.18 -0.023,-2.676 -0.556,-1.348 -3.379,-3.694 -4.475,-4.913 -3.867,-4.304 -7.733,-8.631 -11.237,-13.239 -2.629,-3.457 -4.794,-7.121 -7.215,-10.709 -9.992,-14.803 -18.28,-30.789 -25.993,-46.881 -4.947,-10.321 -9.86,-20.681 -13.664,-31.493 -3.353,-9.533 -5.841,-19.246 -7.296,-29.25 -2.475,-17.008 -0.819,-33.314 1.449,-50.177 -0.969,-0.311 -2.676,-0.908 -3.205,-1.807 -2.218,-3.77 -1.143,-9.361 -0.563,-13.496 0.499,-3.549 1.039,-6.864 2.007,-10.329 2.047,-7.323 5.412,-13.656 9.277,-20.126 5.489,-9.19 13.198,-18.207 22.73,-23.403 l 7.825,-3.811 c -2.378,-4.185 -5.212,-7.274 -6.342,-12.144 -0.353,-1.526 -0.298,-3.261 0.636,-4.548 0.925,-1.272 2.313,-1.76 3.805,-1.984 4.727,1.049 6.635,3.918 10.031,6.966 -1.012,-4.575 -2.25,-8.921 -0.402,-13.476 2.983,-7.349 12.46,-12.978 19.56,-15.841 8.935,-3.602 15.924,-4.31 25.396,-2.72 0.565,-1.461 1.15,-2.814 2.1,-4.072 2.463,-3.261 6.742,-5.792 10.253,-7.778 15.942,-9.016 32.71,-11.15 50.571,-13.275 z m -109.4,229.368 c -1.105,2.706 -2.234,5.546 -2.865,8.403 -0.844,3.825 -0.634,8.465 -0.411,12.347 0.078,1.357 -0.042,2.822 0.164,4.153 0.42,2.71 1.724,5.612 2.559,8.236 1.796,5.642 5.679,11.236 9.692,15.505 4.909,4.489 10.211,8.199 15.209,12.536 2.813,2.44 4.411,5.233 7.701,7.259 3.473,2.139 11.058,-1.917 12.66,1.651 -0.528,1.593 -2.035,2.839 -3.536,3.531 -2.808,1.294 -7.262,1.576 -10.246,0.919 -0.744,10.304 0.168,20.824 0.053,31.155 l -0.511,14.057 -0.106,34.249 -0.396,32.858 c 0.006,5.162 -0.754,11.667 0.809,16.544 2.342,7.303 6.611,14.099 10.836,20.486 14.029,18.29 31.482,36.919 52.434,47.298 9.162,4.539 19.787,7.617 29.927,8.945 l 13.187,1.189 10.169,0.008 4.605,-0.163 c 26.902,-2.787 49.245,-15.321 65.951,-36.473 3.667,-4.643 7.828,-12.544 7.735,-18.564 -0.075,-4.854 -2.811,-9.644 -4.802,-13.95 l -6.326,-13.925 c -2.832,-6.171 -5.565,-11.892 -6.313,-18.712 l -7.491,-1.469 c -13.938,-2.303 -27.142,-6.096 -40.422,-10.851 -32.542,-11.652 -62.772,-29.188 -83.127,-57.879 -6.741,-9.502 -11.93,-20.499 -15.299,-31.636 -0.731,-2.416 -1.897,-5.173 -1.465,-7.715 0.991,-0.516 1.572,-0.887 2.707,-0.537 3.963,1.222 7.268,12.918 8.693,16.572 1.063,2.727 2.52,5.683 3.838,8.305 1.927,3.833 4.591,7.416 6.933,11.009 18.217,27.943 47.829,43.66 78.393,54.656 l 12.547,4.583 c 9.099,2.925 18.302,5.141 27.649,7.1 13.307,2.789 33.971,6.416 45.88,-1.826 3.093,-2.141 5.948,-6.228 6.893,-9.874 0.539,-2.078 0.491,-4.311 0.872,-6.421 1.421,-7.871 -0.817,-16.543 2.056,-24.242 l 0.208,-0.54 c 0.912,-2.474 2.029,-4.684 3.454,-6.913 1.846,-2.89 5.005,-6.561 5.287,-10.102 l 0.218,-3.793 c -2.458,0.002 -5.043,0.148 -7.487,-0.063 -3.454,-0.297 -6.348,-1.315 -9.937,-1.059 -3.168,0.225 -6.195,1.051 -9.325,1.495 -4.876,0.693 -9.813,1.071 -14.737,1.118 -1.774,0.017 -4.255,0.243 -5.865,-0.557 -0.156,-1.1 -0.265,-1.184 0.301,-2.118 1.519,-0.823 3.636,-0.911 5.351,-1.167 l 12.238,-1.775 11.013,-2.356 c 1.146,-0.196 2.634,-0.582 3.793,-0.448 l 0.605,0.132 c 1.514,0.313 2.838,0.789 4.259,1.384 0.331,0.138 1.412,0.738 1.728,0.735 1.159,-0.014 3.444,-1.303 4.701,-1.637 1.997,-0.531 4.153,-0.65 6.188,-1.077 0.568,-1.034 0.569,-2.67 0.756,-3.858 1.455,-9.225 1.175,-19.567 0.515,-28.878 -0.606,-0.545 -1.018,-0.975 -1.418,-1.687 0.799,-3.205 3.914,-5.666 5.727,-8.398 1.871,-2.82 3.22,-5.658 4.312,-8.852 l 0.425,-1.29 0.156,-0.635 c 2.109,-10.476 -6.978,-19.632 -12.212,-27.551 -2.709,-4.099 -4.972,-8.489 -6.683,-13.099 -1.21,-3.261 -2.384,-6.668 -3.15,-10.067 -1.248,-5.539 -1.501,-11.423 -4.459,-16.358 -0.844,-0.319 -1.431,-0.431 -2.34,-0.348 -1.679,0.153 -4.196,0.79 -5.19,2.286 -0.77,1.159 -0.894,3.054 -1.13,4.405 l -1.483,8.735 c -1.975,10.534 -6.116,22.002 -13.107,30.296 -6.141,7.286 -13.588,10.34 -22.91,11.245 -6.644,0.645 -16.157,-0.015 -21.461,-4.502 -9.642,-8.156 -9.947,-31.94 -11.028,-43.603 l -21.999,0.285 c -1.53,0.025 -4.487,0.646 -5.789,0.046 l -0.214,-0.595 0.756,-1.126 c 2.9,-1.787 7.084,-1.255 10.363,-1.403 5.032,-0.227 10.228,-0.254 15.187,-1.117 l 0.368,-0.854 -0.525,-0.668 c -2.545,-0.72 -4.455,-0.426 -7.02,-0.355 l -10.194,0.261 -11.764,-0.313 -33.908,-1.884 c -7.002,-0.35 -13.787,-0.82 -20.791,-0.117 -2.521,5.877 -3.805,12.329 -5.388,18.504 l -2.107,8.384 c -0.232,1.06 -0.572,1.972 -0.276,3.061 0.58,2.135 2.349,6.617 1.418,8.576 -3.182,2.036 -7.02,3.133 -10.729,3.703 -1.531,0.235 -5.449,0.831 -6.708,-0.088 -0.472,-0.344 -1.059,-1.983 -1.298,-2.564 -0.251,-0.611 -0.555,-1.82 -0.919,-2.315 -0.847,-1.147 -4.364,-2.218 -5.712,-3.236 -4.987,-3.767 -7.923,-8.521 -11.715,-13.352 -5.047,-6.431 -13.42,-11.959 -21.39,-13.843 -3.964,-0.938 -12.006,-0.205 -15.371,2.14 l -0.408,0.298 c -3.957,2.757 -6.001,5.859 -8.016,10.155 z m 233.974,-117.629 -14.525,1.436 c -1.315,2.908 -2.557,6.012 -4.25,8.72 -5.457,8.732 -14.676,14.629 -24.183,18.152 -7.781,2.884 -16.907,3.901 -25.144,4.42 -4.015,0.252 -8.012,0.68 -12.042,0.663 -5.531,-0.024 -11.365,-0.663 -16.841,-1.447 -1.55,3.326 -2.88,6.84 -4.573,10.088 -3.63,6.961 -8.386,12.195 -15.064,16.276 -5.766,-0.008 -10.526,2.187 -14.614,6.269 -4.37,4.364 -9.495,11.991 -11.49,17.865 l 82.218,-7.576 20.813,-0.219 21.914,-0.92 c 7.089,-0.029 16.02,-0.462 21.408,5.011 3.722,3.779 5.65,7.715 6.81,12.86 4.131,-0.952 8.737,-2.259 12.792,-0.471 3.782,4.663 2.104,12.389 5.342,17.698 1.019,-6.134 1.703,-12.715 3.596,-18.633 1.051,-3.284 2.647,-6.312 4.165,-9.398 -2.569,0.511 -7.583,1.492 -10.103,0.577 -0.495,-0.982 -0.692,-1.423 -0.32,-2.507 0.571,-1.668 2.417,-2.755 3.956,-3.365 4.27,-1.695 8.952,-2.025 13.454,-2.745 l -16.499,-67.143 -0.378,-0.035 c -1.813,-0.182 -3.456,-0.764 -5.233,-1.124 l -10.212,-2.264 c -3.482,-0.942 -7.34,-2.598 -10.997,-2.188 z m -15.931,82.477 -16.338,2.085 c -4.637,0.652 -9.169,1.199 -13.288,3.594 l -0.412,0.23 c -2.39,1.374 -3.688,4.098 -4.589,6.578 7.284,-1.391 25.165,-6.622 31.541,-2.326 2.271,1.529 3.135,3.634 3.558,6.263 0.191,1.184 0.157,1.9 -0.312,2.997 l -0.937,0.684 c -2.67,-0.445 -3.492,-4.756 -5.898,-5.522 -3.789,-1.208 -24.558,1.284 -27.391,3.399 -0.865,0.646 -1.062,1.632 -1.198,2.697 l 0.013,2.25 c 1.13,1.258 2.791,1.395 4.448,1.496 4.539,0.276 9.281,0.16 13.826,0.002 4.213,-0.147 10.34,-1.08 14.137,0.848 0,1.016 -0.229,1.155 -0.963,1.879 -2.511,2.473 -8.741,1.809 -12.068,1.74 l -19.431,0.08 c 0.043,5.295 -0.699,11.89 0.39,17.018 1.313,6.179 1.567,13.148 7.311,16.934 4.64,3.058 14.495,2.967 19.9,1.738 l 0.634,-0.148 c 6.09,-1.263 11.899,-4.683 15.539,-9.807 2.718,-3.825 4.523,-8.343 6.223,-12.684 3.507,-8.96 7.543,-20.68 5.811,-30.472 -0.622,-3.517 -1.837,-6.396 -4.899,-8.391 -4.638,-3.021 -10.156,-3.828 -15.607,-3.162 z m 50.258,27.096 c -0.338,6.405 -0.778,12.401 1.243,18.611 1.93,4.946 4.543,8.325 8.556,11.682 2.574,-0.348 5.298,-0.351 7.793,-1.092 l 0.56,-0.174 c 1.438,-0.429 2.65,-0.891 3.88,-1.777 9.301,-6.696 11.199,-21.07 12.928,-31.565 l -30.117,2.945 c -0.851,0.113 -3.385,0.154 -4.032,0.54 -0.333,0.198 -0.541,0.553 -0.811,0.83 z m 21.572,-19.583 c -5.198,0.66 -11.111,0.912 -16.006,2.807 -1.589,3.486 -3.306,7.093 -4.171,10.836 4.495,0.536 9.401,-0.473 13.877,-1.009 l 19.92,-2.921 -0.237,-3.063 c -0.138,-1.55 -1.194,-4.447 -2.503,-5.39 -2.818,-2.03 -7.631,-1.497 -10.88,-1.26 z M 279.971,568.174 c -4.225,-6.387 -8.494,-13.183 -10.836,-20.486 -1.563,-4.877 -0.803,-11.382 -0.809,-16.544 l 0.396,-32.858 0.106,-34.249 0.511,-14.057 c 0.115,-10.331 -0.797,-20.851 -0.053,-31.155 -0.647,-0.344 -0.321,-0.32 -0.974,-0.133 -0.278,0.372 -0.985,1.092 -1.117,1.496 -0.305,0.928 -0.176,2.763 -0.191,3.75 -0.052,3.381 -0.158,7.084 0.32,10.431 0.797,5.583 1.079,10.602 0.943,16.272 -0.063,2.609 0.029,5.138 -0.89,7.611 -0.532,1.432 -0.681,3.179 -0.561,4.686 0.251,3.148 0.054,6.453 0.053,9.619 l 0.011,17 c -0.007,1.412 0.41,4.844 -0.039,6.072 -0.073,0.199 -0.267,0.331 -0.4,0.496 -0.027,0.912 -0.154,1.667 0.428,2.438 -0.018,1.327 0.295,3.609 -0.409,4.687 0.204,0.856 0.046,2.865 0.352,3.21 l -0.352,0.54 0.176,0.44 c 0.384,1.044 0.178,2.562 0.176,3.685 l -0.279,0.375 0.17,0.415 c 0.606,1.971 0.228,4.937 0.224,7.038 l -0.019,22.058 c 0.011,1.734 -0.363,4.664 0.097,6.248 0.17,0.588 0.712,1.25 1.053,1.741 l 0.018,0.434 c 0.058,1.266 0.354,2.232 0.991,3.316 l 0.15,0.321 c 0.441,0.885 1.046,1.825 1.539,2.677 0.415,0.719 1.051,1.294 1.476,2.064 l 0.707,1.169 c 0.663,1.076 1.309,2.503 1.749,3.703 l 0.378,0.191 3.372,5.058 z M 247.498,392.929 c -4.013,-4.269 -7.896,-9.863 -9.692,-15.505 -0.835,-2.624 -2.139,-5.526 -2.559,-8.236 -0.206,-1.331 -0.086,-2.796 -0.164,-4.153 -0.223,-3.882 -0.433,-8.522 0.411,-12.347 0.631,-2.857 1.76,-5.697 2.865,-8.403 l -1.161,-0.334 c -0.922,1.335 -1.149,2.904 -1.661,4.424 -0.19,0.567 -0.344,1.12 -0.592,1.667 -0.873,1.917 -0.766,4.335 -0.864,6.412 -0.237,5.025 -0.77,11.264 0.107,16.198 l 0.771,0.661 0.011,0.418 c 0.034,1.035 0.131,1.615 0.457,2.581 0.336,0.999 0.5,1.815 1.023,2.749 0.247,0.441 0.365,0.692 0.482,1.187 0.297,1.252 1.584,3.344 2.344,4.419 l 1.418,2 c 0.584,0.71 1.038,1.531 1.513,2.316 0.617,1.022 1.318,1.58 2.211,2.329 l 0.194,0.284 c 0.385,0.537 0.874,0.875 1.39,1.286 z M 347.759,114.917 c 0.735,0.328 1.484,0.729 2.303,0.767 2.692,0.124 5.469,-0.218 8.176,-0.213 4.847,0.01 10.983,0.914 15.67,0.01 -2.567,-0.582 -5.291,-0.582 -7.908,-0.733 -6.067,-0.352 -12.189,-0.51 -18.241,0.169 z M 507.903,354.84 c -2.021,-6.21 -1.581,-12.206 -1.243,-18.611 l -0.981,0.284 c -0.374,3.497 -1.177,13.015 0.012,15.799 0.541,1.266 0.417,1.559 1.51,2.521 z m -132.384,270.766 0.802,1.051 8.608,0.109 0.759,-1.152 z m -120.784,-109.701 7.043,0.142 c -0.359,-0.332 -0.668,-0.493 -0.778,-0.985 v -0.541 c -3.061,0.343 -6.073,-0.199 -9.115,0.248 l 2.365,0.106 c 1.374,1.016 3.816,-0.02 5.531,0.606 -1.297,-0.003 -4.152,-0.408 -5.046,0.424 z"
       id="path2"
       style="fill:#2c352d;fill-opacity:1"
       transform="scale(0.666667)" />
    <path
       transform="scale(0.666667)"
       d="m 254.735,515.905 c 0.894,-0.832 3.749,-0.427 5.046,-0.424 -1.715,-0.626 -4.157,0.41 -5.531,-0.606 l -2.365,-0.106 c 3.042,-0.447 6.054,0.095 9.115,-0.248 v 0.541 c 0.11,0.492 0.419,0.653 0.778,0.985 z"
       id="path4"
       style="fill:#2c352d;fill-opacity:1" />
    <path
       transform="scale(0.666667)"
       d="m 375.519,625.606 10.169,0.008 -0.759,1.152 -8.608,-0.109 z"
       id="path6"
       style="fill:#2c352d;fill-opacity:1" />
    <path
       transform="scale(0.666667)"
       d="m 507.903,354.84 -0.702,-0.007 c -1.093,-0.962 -0.969,-1.255 -1.51,-2.521 -1.189,-2.784 -0.386,-12.302 -0.012,-15.799 l 0.981,-0.284 c -0.338,6.405 -0.778,12.401 1.243,18.611 z"
       id="path8"
       style="fill:#2c352d;fill-opacity:1" />
    <path
       transform="scale(0.666667)"
       d="m 347.759,114.917 c 6.052,-0.679 12.174,-0.521 18.241,-0.169 2.617,0.151 5.341,0.151 7.908,0.733 -4.687,0.904 -10.823,0 -15.67,-0.01 -2.707,-0.005 -5.484,0.337 -8.176,0.213 -0.819,-0.038 -1.568,-0.439 -2.303,-0.767 z"
       id="path10"
       style="fill:#2c352d;fill-opacity:1" />
    <path
       transform="scale(0.666667)"
       d="m 247.498,392.929 -1.496,-0.047 c -0.516,-0.411 -1.005,-0.749 -1.39,-1.286 l -0.194,-0.284 c -0.893,-0.749 -1.594,-1.307 -2.211,-2.329 -0.475,-0.785 -0.929,-1.606 -1.513,-2.316 l -1.418,-2 c -0.76,-1.075 -2.047,-3.167 -2.344,-4.419 -0.117,-0.495 -0.235,-0.746 -0.482,-1.187 -0.523,-0.934 -0.687,-1.75 -1.023,-2.749 -0.326,-0.966 -0.423,-1.546 -0.457,-2.581 l -0.011,-0.418 -0.771,-0.661 c -0.877,-4.934 -0.344,-11.173 -0.107,-16.198 0.098,-2.077 -0.009,-4.495 0.864,-6.412 0.248,-0.547 0.402,-1.1 0.592,-1.667 0.512,-1.52 0.739,-3.089 1.661,-4.424 l 1.161,0.334 c -1.105,2.706 -2.234,5.546 -2.865,8.403 -0.844,3.825 -0.634,8.465 -0.411,12.347 0.078,1.357 -0.042,2.822 0.164,4.153 0.42,2.71 1.724,5.612 2.559,8.236 1.796,5.642 5.679,11.236 9.692,15.505 z"
       id="path12"
       style="fill:#2c352d;fill-opacity:1" />
    <path
       transform="scale(0.666667)"
       d="m 279.971,568.174 -1.533,-0.241 -3.372,-5.058 -0.378,-0.191 c -0.44,-1.2 -1.086,-2.627 -1.749,-3.703 l -0.707,-1.169 c -0.425,-0.77 -1.061,-1.345 -1.476,-2.064 -0.493,-0.852 -1.098,-1.792 -1.539,-2.677 l -0.15,-0.321 c -0.637,-1.084 -0.933,-2.05 -0.991,-3.316 L 268.058,549 c -0.341,-0.491 -0.883,-1.153 -1.053,-1.741 -0.46,-1.584 -0.086,-4.514 -0.097,-6.248 l 0.019,-22.058 c 0.004,-2.101 0.382,-5.067 -0.224,-7.038 l -0.17,-0.415 0.279,-0.375 c 0.002,-1.123 0.208,-2.641 -0.176,-3.685 l -0.176,-0.44 0.352,-0.54 c -0.306,-0.345 -0.148,-2.354 -0.352,-3.21 0.704,-1.078 0.391,-3.36 0.409,-4.687 -0.582,-0.771 -0.455,-1.526 -0.428,-2.438 0.133,-0.165 0.327,-0.297 0.4,-0.496 0.449,-1.228 0.032,-4.66 0.039,-6.072 l -0.011,-17 c 10e-4,-3.166 0.198,-6.471 -0.053,-9.619 -0.12,-1.507 0.029,-3.254 0.561,-4.686 0.919,-2.473 0.827,-5.002 0.89,-7.611 0.136,-5.67 -0.146,-10.689 -0.943,-16.272 -0.478,-3.347 -0.372,-7.05 -0.32,-10.431 0.015,-0.987 -0.114,-2.822 0.191,-3.75 0.132,-0.404 0.839,-1.124 1.117,-1.496 0.653,-0.187 0.327,-0.211 0.974,0.133 -0.744,10.304 0.168,20.824 0.053,31.155 l -0.511,14.057 -0.106,34.249 -0.396,32.858 c 0.006,5.162 -0.754,11.667 0.809,16.544 2.342,7.303 6.611,14.099 10.836,20.486 z"
       id="path14"
       style="fill:#2c352d;fill-opacity:1" />
    <path
       transform="scale(0.666667)"
       d="m 273.364,357.379 c 1.119,-0.047 1.541,-0.153 2.552,0.374 0.556,2.824 -2.364,4.969 -4.304,6.426 -0.41,0.308 -1.642,1.007 -1.895,1.401 -0.656,1.017 -0.244,3.418 -0.526,4.693 -0.238,1.076 -0.951,2.105 -1.514,3.039 l -1.239,0.052 -0.539,-0.873 c -1.313,-2.85 -1.147,-6.43 -0.065,-9.303 1.249,-3.317 4.527,-4.554 7.53,-5.809 z"
       id="path16"
       style="fill:#2c352d;fill-opacity:1" />
    <path
       transform="scale(0.666667)"
       d="m 497.807,395.02 c 1.303,-0.095 2.563,-0.041 3.755,0.576 1.016,0.527 1.4,1.064 1.809,2.092 l -0.5,1.124 c -2.46,1.483 -5.338,0.905 -8.111,1.042 -1.899,0.094 -3.808,0.459 -5.679,0.791 -1.301,1.408 -1.676,2.827 -2.618,4.402 -0.679,1.134 -1.296,1.167 -2.525,1.393 -1.657,0.05 -3.194,-0.335 -4.538,-1.353 -1.019,-0.771 -1.634,-1.8 -1.731,-3.087 -0.116,-1.549 0.02,-2.512 1.116,-3.684 1.239,-1.325 3.637,-1.761 5.34,-2.052 4.511,-0.77 9.119,-0.99 13.682,-1.244 z"
       id="path18"
       style="fill:#2c352d;fill-opacity:1" />
    <path
       transform="scale(0.666667)"
       d="m 254.878,341.378 c 3.449,-0.1 7.167,0.626 9.833,2.938 2.462,2.136 5.234,6.537 5.468,9.9 l -6.268,2 c -1.92,0.803 -3.592,3.217 -4.352,5.081 -1.357,3.328 -2.553,8.083 -1.068,11.536 l 0.218,0.479 c 0.492,1.107 0.967,2.219 1.721,3.179 2.147,2.732 3.491,1.897 6.382,2.507 1.151,0.242 1.241,0.886 1.716,1.814 -0.104,1.528 -0.169,1.763 -1.063,3 -1.04,0.445 -2.191,0.969 -3.345,0.956 -2.318,-0.025 -4.466,-1.623 -5.997,-3.223 -1.915,-2.001 -3.125,-4.167 -4.096,-6.745 -0.913,-3.628 -0.909,-8.876 0.018,-12.529 1.517,-5.978 4.271,-8.883 9.369,-12.009 l -0.901,-1.26 c -1.497,-2.003 -2.864,-2.793 -5.377,-3.105 -6.594,-0.819 -8.474,5.941 -10.311,10.712 -0.563,1.461 -1.05,3.332 -2.302,4.329 -0.339,-0.507 -0.643,-1.057 -0.838,-1.638 -1.041,-3.088 1.705,-10.21 3.304,-12.891 1.765,-2.959 4.681,-4.3 7.889,-5.031 z"
       id="path20"
       style="fill:#2c352d;fill-opacity:1" />
    <path
       style="opacity:0;fill:#2c352d;fill-opacity:1;stroke:#000000;stroke-width:8.07421"
       d="m 244.25035,416.19876 c -11.35061,-1.2353 -21.60271,-5.00431 -31.03448,-11.4093 -10.19048,-6.92022 -24.98857,-23.15059 -30.56218,-33.52024 l -3.20445,-5.96185 v -14.59805 c 0,-8.02893 0.0801,-27.33575 0.17802,-42.90403 l 0.17803,-28.30599 h 3.046 c 3.24387,0 6.2113,-1.5502 6.2113,-3.24482 0,-0.77802 -1.00812,-1.02778 -4.14847,-1.02778 -3.54261,0 -4.4006,-0.26904 -5.87483,-1.84218 -0.9495,-1.01319 -4.52435,-4.10551 -7.94411,-6.87181 -3.41977,-2.76629 -7.33854,-6.66388 -8.70838,-8.66129 -6.59809,-9.62092 -7.18356,-22.55236 -1.40637,-31.06246 2.21957,-3.26955 5.13676,-4.93379 9.56821,-5.45863 3.16028,-0.37429 4.21618,-0.11544 8.82924,2.16445 5.09866,2.5199 6.1928,3.50125 13.11002,11.75864 1.68809,2.01515 4.0059,4.14826 5.15067,4.74025 1.14478,0.59198 2.59732,2.074 3.22788,3.29337 1.11171,2.1498 1.26079,2.20523 4.91663,1.82791 2.07359,-0.21401 4.79089,-0.91695 6.03844,-1.56208 2.25681,-1.16705 2.26628,-1.19522 1.87399,-5.5785 -0.32261,-3.60474 0.0239,-5.89405 1.90642,-12.59468 l 2.30071,-8.18915 8.90125,0.0369 c 17.71498,0.0735 47.41395,1.30418 44.50626,1.84426 -1.56662,0.29099 -5.03247,0.54754 -7.70189,0.57011 -4.87031,0.0412 -7.60826,0.85949 -7.60826,2.27391 0,0.51053 3.0215,0.67696 9.24067,0.50902 l 9.24068,-0.24954 0.33321,2.8484 c 1.9892,17.00411 2.97417,21.13526 5.85568,24.55974 3.37922,4.01598 10.38275,5.6717 18.08378,4.27524 5.73365,-1.03971 8.82251,-2.64483 12.5529,-6.52308 4.95418,-5.15057 8.39282,-13.26288 10.22753,-24.12847 0.94294,-5.58425 1.23345,-6.12417 3.6172,-6.72246 2.2099,-0.55464 2.69768,0.42109 4.83723,9.67613 1.86887,8.08416 3.88812,12.47725 9.54009,20.75545 2.58119,3.78056 4.91239,8.04282 5.18045,9.47167 0.65197,3.47532 -0.53732,7.12082 -4.02876,12.3493 -2.05455,3.07671 -2.75711,4.75656 -2.42584,5.80029 0.60103,1.89369 0.58548,17.65683 -0.0198,20.06847 -0.4894,1.94992 -3.26742,2.89815 -7.82056,2.66941 -5.99242,-0.30103 -7.66402,-0.18971 -14.242,0.94848 -3.91655,0.67768 -8.18243,1.40662 -9.47972,1.61987 -1.73241,0.28477 -2.29366,0.70784 -2.11371,1.5933 0.21063,1.03641 1.12093,1.18479 6.4872,1.05738 3.4332,-0.0815 7.90926,-0.4476 9.9468,-0.81354 2.03755,-0.36594 6.18808,-0.49744 9.22341,-0.29223 5.03029,0.34009 5.51861,0.50664 5.51695,1.88169 -7.2e-4,0.82972 -1.10594,3.33957 -2.45539,5.57746 -3.61896,6.00152 -4.66143,9.73943 -4.6812,16.78494 -0.0399,14.2106 -3.70019,18.87887 -15.58384,19.87515 -17.83592,1.49531 -57.5351,-11.21433 -77.48589,-24.80699 -12.52742,-8.53504 -23.89655,-22.54414 -29.01373,-35.75086 -2.60996,-6.73593 -4.79348,-10.02875 -6.31853,-9.52856 -3.42488,1.1233 3.18506,18.34454 11.13145,29.00139 15.14759,20.31433 43.54064,36.32888 76.50037,43.14855 l 9.34126,1.93279 0.76379,3.03331 c 0.42009,1.66831 3.00928,7.98347 5.75377,14.03368 5.73626,12.64559 6.04394,14.74537 3.08206,21.03346 -2.53605,5.38403 -13.03437,15.90677 -19.96499,20.01141 -13.127,7.77444 -26.05354,10.38049 -42.57217,8.58275 z m 80.93998,-146.99647 c 0.78831,-1.73016 1.51017,-1.96048 8.42859,-2.6893 1.243,-0.13094 1.78025,-0.61734 1.78025,-1.61174 0,-1.33266 -0.44547,-1.41855 -6.93031,-1.33638 -9.23247,0.117 -12.0175,1.82916 -9.779,6.01185 1.14839,2.14576 5.46549,1.89709 6.50047,-0.37443 z M 178.95314,254.49438 c 0.18265,-1.57423 -0.11964,-1.92879 -1.95787,-2.29644 -6.59165,-1.31833 -6.06674,-12.77719 0.67786,-14.79792 1.56434,-0.46869 2.84426,-1.13465 2.84426,-1.47991 0,-0.34526 -0.64404,-1.89016 -1.43119,-3.43311 -1.69784,-3.32804 -4.52622,-4.97101 -8.55763,-4.97101 -3.60078,0 -6.57665,2.62169 -7.74258,6.82107 -1.95556,7.0434 -0.16702,8.4596 2.69953,2.13755 2.28919,-5.04869 4.28464,-6.30557 7.60733,-4.79166 2.1897,0.9977 2.18057,1.78144 -0.0377,3.2349 -5.64009,3.69554 -5.96354,16.1237 -0.53084,20.39706 2.68543,2.11236 6.13969,1.67148 6.42883,-0.82053 z m 0.85215,-8.23838 c 0.20793,-1.31447 1.17067,-2.8878 2.31432,-3.78212 2.48062,-1.93982 2.63036,-4.27638 0.27406,-4.27638 -3.85419,0 -7.09364,5.15881 -5.79963,9.23589 0.71991,2.26823 2.78602,1.51071 3.21125,-1.17739 z"
       id="path157" />
  </g>
</svg>
